<svg id="visual" viewBox="0 0 900 600" width="900" height="600" xmlns="http://www.w3.org/2000/svg" xmlns:xlink="http://www.w3.org/1999/xlink" version="1.1"><g stroke-width="1" stroke-linejoin="bevel"><path d="M481.5 284L534.5 270L512.5 241Z" fill="#e9e9e9" stroke="#e9e9e9"></path><path d="M512.5 241L480.5 224L481.5 284Z" fill="#f3f3f3" stroke="#f3f3f3"></path><path d="M481.5 284L554.4 298L534.5 270Z" fill="#eaeaea" stroke="#eaeaea"></path><path d="M480.5 224L472.4 223L481.5 284Z" fill="#f0f0f0" stroke="#f0f0f0"></path><path d="M592.4 259L523.4 193L512.5 241Z" fill="#eaeaea" stroke="#eaeaea"></path><path d="M512.5 241L523.4 193L480.5 224Z" fill="#eeeeee" stroke="#eeeeee"></path><path d="M480.5 224L474.5 165L472.4 223Z" fill="#f5f5f5" stroke="#f5f5f5"></path><path d="M592.4 259L512.5 241L534.5 270Z" fill="#eaeaea" stroke="#eaeaea"></path><path d="M599.3 159L524.4 186L523.4 193Z" fill="#eaeaea" stroke="#eaeaea"></path><path d="M523.4 193L516.5 180L480.5 224Z" fill="#f5f5f5" stroke="#f5f5f5"></path><path d="M481.5 284L534.5 349L554.4 298Z" fill="#efefef" stroke="#efefef"></path><path d="M586.4 351L592.4 259L554.4 298Z" fill="#f5f5f5" stroke="#f5f5f5"></path><path d="M554.4 298L592.4 259L534.5 270Z" fill="#f0f0f0" stroke="#f0f0f0"></path><path d="M524.4 186L516.5 180L523.4 193Z" fill="#f3f3f3" stroke="#f3f3f3"></path><path d="M423.5 340L476.5 361L481.5 284Z" fill="#f4f4f4" stroke="#f4f4f4"></path><path d="M481.5 284L476.5 361L534.5 349Z" fill="#ebebeb" stroke="#ebebeb"></path><path d="M407.5 180L402.6 280L472.4 223Z" fill="#f3f3f3" stroke="#f3f3f3"></path><path d="M472.4 223L402.6 280L481.5 284Z" fill="#ededed" stroke="#ededed"></path><path d="M516.5 180L474.5 165L480.5 224Z" fill="#e9e9e9" stroke="#e9e9e9"></path><path d="M402.6 280L423.5 340L481.5 284Z" fill="#eeeeee" stroke="#eeeeee"></path><path d="M570.4 416L579.3 353L534.5 349Z" fill="#f0f0f0" stroke="#f0f0f0"></path><path d="M534.5 349L579.3 353L554.4 298Z" fill="#f3f3f3" stroke="#f3f3f3"></path><path d="M579.3 353L586.4 351L554.4 298Z" fill="#e9e9e9" stroke="#e9e9e9"></path><path d="M498.4 134L465.5 156L474.5 165Z" fill="#f5f5f5" stroke="#f5f5f5"></path><path d="M474.5 165L460.5 156L472.4 223Z" fill="#f3f3f3" stroke="#f3f3f3"></path><path d="M435.6 436L496.4 389L476.5 361Z" fill="#f0f0f0" stroke="#f0f0f0"></path><path d="M476.5 361L496.4 389L534.5 349Z" fill="#f3f3f3" stroke="#f3f3f3"></path><path d="M579.3 353L622.2 391L586.4 351Z" fill="#e9e9e9" stroke="#e9e9e9"></path><path d="M465.5 156L460.5 156L474.5 165Z" fill="#f1f1f1" stroke="#f1f1f1"></path><path d="M586.4 351L635.2 262L592.4 259Z" fill="#f4f4f4" stroke="#f4f4f4"></path><path d="M592.4 259L599.3 159L523.4 193Z" fill="#ededed" stroke="#ededed"></path><path d="M574.4 121L498.4 134L516.5 180Z" fill="#f5f5f5" stroke="#f5f5f5"></path><path d="M460.5 156L407.5 180L472.4 223Z" fill="#efefef" stroke="#efefef"></path><path d="M372.6 353L417.5 369L423.5 340Z" fill="#ebebeb" stroke="#ebebeb"></path><path d="M423.5 340L417.5 369L476.5 361Z" fill="#f0f0f0" stroke="#f0f0f0"></path><path d="M574.4 121L516.5 180L524.4 186Z" fill="#ededed" stroke="#ededed"></path><path d="M516.5 180L498.4 134L474.5 165Z" fill="#f1f1f1" stroke="#f1f1f1"></path><path d="M465.5 156L443.5 111L460.5 156Z" fill="#f5f5f5" stroke="#f5f5f5"></path><path d="M460.5 156L443.5 111L407.5 180Z" fill="#eaeaea" stroke="#eaeaea"></path><path d="M604.4 161L599.3 159L592.4 259Z" fill="#e9e9e9" stroke="#e9e9e9"></path><path d="M625.3 171L604.4 161L592.4 259Z" fill="#f1f1f1" stroke="#f1f1f1"></path><path d="M329.6 320L369.6 333L402.6 280Z" fill="#ebebeb" stroke="#ebebeb"></path><path d="M402.6 280L369.6 333L423.5 340Z" fill="#eaeaea" stroke="#eaeaea"></path><path d="M635.2 262L625.3 171L592.4 259Z" fill="#efefef" stroke="#efefef"></path><path d="M369.6 333L372.6 353L423.5 340Z" fill="#f3f3f3" stroke="#f3f3f3"></path><path d="M496.4 389L570.4 416L534.5 349Z" fill="#ededed" stroke="#ededed"></path><path d="M586.4 351L622.2 391L635.2 262Z" fill="#e9e9e9" stroke="#e9e9e9"></path><path d="M575.4 449L570.4 416L545.4 465Z" fill="#f0f0f0" stroke="#f0f0f0"></path><path d="M630.2 136L599.3 159L604.4 161Z" fill="#f5f5f5" stroke="#f5f5f5"></path><path d="M630.2 136L574.4 121L599.3 159Z" fill="#ededed" stroke="#ededed"></path><path d="M599.3 159L574.4 121L524.4 186Z" fill="#eaeaea" stroke="#eaeaea"></path><path d="M570.4 416L622.2 391L579.3 353Z" fill="#f5f5f5" stroke="#f5f5f5"></path><path d="M362.6 378L370.6 370L372.6 353Z" fill="#f0f0f0" stroke="#f0f0f0"></path><path d="M372.6 353L370.6 370L417.5 369Z" fill="#f1f1f1" stroke="#f1f1f1"></path><path d="M417.5 369L435.6 436L476.5 361Z" fill="#f4f4f4" stroke="#f4f4f4"></path><path d="M491.5 37L443.5 111L498.4 134Z" fill="#e9e9e9" stroke="#e9e9e9"></path><path d="M498.4 134L443.5 111L465.5 156Z" fill="#f1f1f1" stroke="#f1f1f1"></path><path d="M329.6 320L362.6 378L372.6 353Z" fill="#eaeaea" stroke="#eaeaea"></path><path d="M370.6 370L358.6 419L417.5 369Z" fill="#eeeeee" stroke="#eeeeee"></path><path d="M412.5 453L435.6 436L358.6 419Z" fill="#f5f5f5" stroke="#f5f5f5"></path><path d="M625.3 171L630.2 136L604.4 161Z" fill="#f1f1f1" stroke="#f1f1f1"></path><path d="M669.3 143L630.2 136L625.3 171Z" fill="#f3f3f3" stroke="#f3f3f3"></path><path d="M374.6 132L368.6 149L407.5 180Z" fill="#eaeaea" stroke="#eaeaea"></path><path d="M407.5 180L304.7 240L402.6 280Z" fill="#f5f5f5" stroke="#f5f5f5"></path><path d="M369.6 333L329.6 320L372.6 353Z" fill="#ebebeb" stroke="#ebebeb"></path><path d="M303.6 295L329.6 320L402.6 280Z" fill="#eaeaea" stroke="#eaeaea"></path><path d="M594.4 97L573.4 98L574.4 121Z" fill="#ededed" stroke="#ededed"></path><path d="M574.4 121L573.4 98L498.4 134Z" fill="#f3f3f3" stroke="#f3f3f3"></path><path d="M368.6 149L354.6 164L407.5 180Z" fill="#efefef" stroke="#efefef"></path><path d="M443.5 111L374.6 132L407.5 180Z" fill="#ebebeb" stroke="#ebebeb"></path><path d="M340.6 118L328.7 164L354.6 164Z" fill="#f1f1f1" stroke="#f1f1f1"></path><path d="M545.4 465L570.4 416L496.4 389Z" fill="#f5f5f5" stroke="#f5f5f5"></path><path d="M570.4 416L643.3 415L622.2 391Z" fill="#eeeeee" stroke="#eeeeee"></path><path d="M443.5 111L372.6 129L374.6 132Z" fill="#f0f0f0" stroke="#f0f0f0"></path><path d="M374.6 132L372.6 129L368.6 149Z" fill="#f5f5f5" stroke="#f5f5f5"></path><path d="M630.2 136L594.4 97L574.4 121Z" fill="#f3f3f3" stroke="#f3f3f3"></path><path d="M435.6 436L545.4 465L496.4 389Z" fill="#f4f4f4" stroke="#f4f4f4"></path><path d="M644.4 415L643.3 415L653.2 437Z" fill="#eeeeee" stroke="#eeeeee"></path><path d="M575.4 449L643.3 415L570.4 416Z" fill="#eaeaea" stroke="#eaeaea"></path><path d="M622.2 391L691.3 401L635.2 262Z" fill="#f1f1f1" stroke="#f1f1f1"></path><path d="M635.2 262L695.3 191L625.3 171Z" fill="#ebebeb" stroke="#ebebeb"></path><path d="M653.2 437L643.3 415L575.4 449Z" fill="#f0f0f0" stroke="#f0f0f0"></path><path d="M643.3 415L644.4 415L622.2 391Z" fill="#f1f1f1" stroke="#f1f1f1"></path><path d="M328.7 164L304.7 240L354.6 164Z" fill="#eeeeee" stroke="#eeeeee"></path><path d="M354.6 164L304.7 240L407.5 180Z" fill="#ebebeb" stroke="#ebebeb"></path><path d="M304.7 240L303.6 295L402.6 280Z" fill="#efefef" stroke="#efefef"></path><path d="M288.6 409L358.6 419L362.6 378Z" fill="#f1f1f1" stroke="#f1f1f1"></path><path d="M736.2 233L695.3 191L635.2 262Z" fill="#e9e9e9" stroke="#e9e9e9"></path><path d="M630.2 136L684.2 66L594.4 97Z" fill="#eaeaea" stroke="#eaeaea"></path><path d="M545.4 465L568.4 465L575.4 449Z" fill="#e9e9e9" stroke="#e9e9e9"></path><path d="M340.6 118L354.6 164L368.6 149Z" fill="#eaeaea" stroke="#eaeaea"></path><path d="M695.3 191L669.3 143L625.3 171Z" fill="#e9e9e9" stroke="#e9e9e9"></path><path d="M358.6 419L435.6 436L417.5 369Z" fill="#eaeaea" stroke="#eaeaea"></path><path d="M435.6 436L420.5 468L545.4 465Z" fill="#eeeeee" stroke="#eeeeee"></path><path d="M358.6 419L370.6 370L362.6 378Z" fill="#f5f5f5" stroke="#f5f5f5"></path><path d="M291.7 359L362.6 378L329.6 320Z" fill="#ededed" stroke="#ededed"></path><path d="M372.5 474L420.5 468L412.5 453Z" fill="#efefef" stroke="#efefef"></path><path d="M412.5 453L420.5 468L435.6 436Z" fill="#f3f3f3" stroke="#f3f3f3"></path><path d="M545.4 465L577.4 505L568.4 465Z" fill="#ebebeb" stroke="#ebebeb"></path><path d="M340.6 118L312.6 161L328.7 164Z" fill="#f0f0f0" stroke="#f0f0f0"></path><path d="M328.7 164L312.6 161L304.7 240Z" fill="#f5f5f5" stroke="#f5f5f5"></path><path d="M577.4 505L653.2 437L575.4 449Z" fill="#ebebeb" stroke="#ebebeb"></path><path d="M644.4 415L691.3 401L622.2 391Z" fill="#ebebeb" stroke="#ebebeb"></path><path d="M372.6 129L340.6 118L368.6 149Z" fill="#f1f1f1" stroke="#f1f1f1"></path><path d="M334.6 32L340.6 118L372.6 129Z" fill="#eaeaea" stroke="#eaeaea"></path><path d="M397.5 0L372.6 129L443.5 111Z" fill="#ebebeb" stroke="#ebebeb"></path><path d="M653.2 437L691.3 401L644.4 415Z" fill="#eeeeee" stroke="#eeeeee"></path><path d="M550.4 28L491.5 37L573.4 98Z" fill="#f0f0f0" stroke="#f0f0f0"></path><path d="M573.4 98L491.5 37L498.4 134Z" fill="#e9e9e9" stroke="#e9e9e9"></path><path d="M264.6 298L291.7 359L303.6 295Z" fill="#ebebeb" stroke="#ebebeb"></path><path d="M303.6 295L291.7 359L329.6 320Z" fill="#f5f5f5" stroke="#f5f5f5"></path><path d="M264.6 298L303.6 295L304.7 240Z" fill="#f5f5f5" stroke="#f5f5f5"></path><path d="M743.2 307L736.2 233L635.2 262Z" fill="#f0f0f0" stroke="#f0f0f0"></path><path d="M739.2 94L684.2 66L669.3 143Z" fill="#f1f1f1" stroke="#f1f1f1"></path><path d="M291.7 359L292.7 371L362.6 378Z" fill="#f4f4f4" stroke="#f4f4f4"></path><path d="M358.6 419L372.5 474L412.5 453Z" fill="#f3f3f3" stroke="#f3f3f3"></path><path d="M691.3 401L743.2 307L635.2 262Z" fill="#eaeaea" stroke="#eaeaea"></path><path d="M211.8 233L264.6 298L304.7 240Z" fill="#f4f4f4" stroke="#f4f4f4"></path><path d="M291.7 359L256.7 393L292.7 371Z" fill="#efefef" stroke="#efefef"></path><path d="M288.6 409L372.5 474L358.6 419Z" fill="#f1f1f1" stroke="#f1f1f1"></path><path d="M539.4 600L577.4 505L545.4 465Z" fill="#eaeaea" stroke="#eaeaea"></path><path d="M639.3 28L550.4 28L594.4 97Z" fill="#eaeaea" stroke="#eaeaea"></path><path d="M594.4 97L550.4 28L573.4 98Z" fill="#f1f1f1" stroke="#f1f1f1"></path><path d="M424.5 545L545.4 465L420.5 468Z" fill="#ebebeb" stroke="#ebebeb"></path><path d="M568.4 465L577.4 505L575.4 449Z" fill="#f1f1f1" stroke="#f1f1f1"></path><path d="M691.3 401L750.2 334L743.2 307Z" fill="#eaeaea" stroke="#eaeaea"></path><path d="M743.2 307L760.2 253L736.2 233Z" fill="#f4f4f4" stroke="#f4f4f4"></path><path d="M758.2 307L760.2 253L743.2 307Z" fill="#f5f5f5" stroke="#f5f5f5"></path><path d="M757.1 159L669.3 143L695.3 191Z" fill="#e9e9e9" stroke="#e9e9e9"></path><path d="M750.2 334L758.2 307L743.2 307Z" fill="#f5f5f5" stroke="#f5f5f5"></path><path d="M256.7 393L288.6 409L292.7 371Z" fill="#f5f5f5" stroke="#f5f5f5"></path><path d="M292.7 371L288.6 409L362.6 378Z" fill="#ebebeb" stroke="#ebebeb"></path><path d="M496.5 0L445.5 11L491.5 37Z" fill="#f4f4f4" stroke="#f4f4f4"></path><path d="M491.5 37L445.5 11L443.5 111Z" fill="#eaeaea" stroke="#eaeaea"></path><path d="M577.4 505L681.3 468L653.2 437Z" fill="#e9e9e9" stroke="#e9e9e9"></path><path d="M653.2 437L681.3 468L691.3 401Z" fill="#ededed" stroke="#ededed"></path><path d="M691.3 401L792.1 413L750.2 334Z" fill="#efefef" stroke="#efefef"></path><path d="M520.4 0L496.5 0L491.5 37Z" fill="#f3f3f3" stroke="#f3f3f3"></path><path d="M550.4 28L520.4 0L491.5 37Z" fill="#ededed" stroke="#ededed"></path><path d="M757.1 159L695.3 191L736.2 233Z" fill="#efefef" stroke="#efefef"></path><path d="M669.3 143L684.2 66L630.2 136Z" fill="#ededed" stroke="#ededed"></path><path d="M550.4 28L565.4 -9L520.4 0Z" fill="#ededed" stroke="#ededed"></path><path d="M813.1 210L757.1 159L736.2 233Z" fill="#f4f4f4" stroke="#f4f4f4"></path><path d="M684.2 66L639.3 28L594.4 97Z" fill="#eaeaea" stroke="#eaeaea"></path><path d="M758.2 307L781.2 261L760.2 253Z" fill="#eeeeee" stroke="#eeeeee"></path><path d="M813.1 210L795.1 150L757.1 159Z" fill="#e9e9e9" stroke="#e9e9e9"></path><path d="M799.2 331L781.2 261L758.2 307Z" fill="#f4f4f4" stroke="#f4f4f4"></path><path d="M209.8 353L256.7 393L291.7 359Z" fill="#eeeeee" stroke="#eeeeee"></path><path d="M343.6 538L424.5 545L372.5 474Z" fill="#eaeaea" stroke="#eaeaea"></path><path d="M639.3 28L583.4 0L550.4 28Z" fill="#e9e9e9" stroke="#e9e9e9"></path><path d="M687.2 502L700.3 471L681.3 468Z" fill="#eaeaea" stroke="#eaeaea"></path><path d="M681.3 468L700.3 471L691.3 401Z" fill="#efefef" stroke="#efefef"></path><path d="M750.2 334L799.2 331L758.2 307Z" fill="#f5f5f5" stroke="#f5f5f5"></path><path d="M496.5 0L422.6 0L445.5 11Z" fill="#f4f4f4" stroke="#f4f4f4"></path><path d="M445.5 11L397.5 0L443.5 111Z" fill="#eeeeee" stroke="#eeeeee"></path><path d="M583.4 0L565.4 -9L550.4 28Z" fill="#f0f0f0" stroke="#f0f0f0"></path><path d="M520.4 0L565.4 -9L496.5 0Z" fill="#eaeaea" stroke="#eaeaea"></path><path d="M496.5 0L565.4 -9L422.6 0Z" fill="#ebebeb" stroke="#ebebeb"></path><path d="M209.7 79L230.7 194L312.6 161Z" fill="#f3f3f3" stroke="#f3f3f3"></path><path d="M312.6 161L230.7 194L304.7 240Z" fill="#f1f1f1" stroke="#f1f1f1"></path><path d="M264.6 298L210.8 341L291.7 359Z" fill="#efefef" stroke="#efefef"></path><path d="M209.7 79L312.6 161L340.6 118Z" fill="#eaeaea" stroke="#eaeaea"></path><path d="M258.8 453L372.5 474L288.6 409Z" fill="#f4f4f4" stroke="#f4f4f4"></path><path d="M372.5 474L424.5 545L420.5 468Z" fill="#ededed" stroke="#ededed"></path><path d="M565.4 -9L397.5 0L422.6 0Z" fill="#eeeeee" stroke="#eeeeee"></path><path d="M422.6 0L397.5 0L445.5 11Z" fill="#f0f0f0" stroke="#f0f0f0"></path><path d="M757.1 159L739.2 94L669.3 143Z" fill="#f4f4f4" stroke="#f4f4f4"></path><path d="M692.3 0L622.2 0L639.3 28Z" fill="#f4f4f4" stroke="#f4f4f4"></path><path d="M397.5 0L334.6 32L372.6 129Z" fill="#f1f1f1" stroke="#f1f1f1"></path><path d="M692.3 0L639.3 28L684.2 66Z" fill="#ededed" stroke="#ededed"></path><path d="M639.3 28L622.2 0L583.4 0Z" fill="#efefef" stroke="#efefef"></path><path d="M583.4 0L622.2 0L565.4 -9Z" fill="#eaeaea" stroke="#eaeaea"></path><path d="M793.2 115L740.2 92L739.2 94Z" fill="#f0f0f0" stroke="#f0f0f0"></path><path d="M739.2 94L740.2 92L684.2 66Z" fill="#ededed" stroke="#ededed"></path><path d="M577.4 505L687.2 502L681.3 468Z" fill="#ededed" stroke="#ededed"></path><path d="M686.2 508L687.2 502L577.4 505Z" fill="#efefef" stroke="#efefef"></path><path d="M230.7 194L211.8 233L304.7 240Z" fill="#f4f4f4" stroke="#f4f4f4"></path><path d="M687.2 502L734.2 462L700.3 471Z" fill="#f0f0f0" stroke="#f0f0f0"></path><path d="M700.3 471L734.2 462L691.3 401Z" fill="#eeeeee" stroke="#eeeeee"></path><path d="M608.4 570L686.2 508L577.4 505Z" fill="#efefef" stroke="#efefef"></path><path d="M687.2 502L729.2 548L734.2 462Z" fill="#eaeaea" stroke="#eaeaea"></path><path d="M792.1 413L799.2 331L750.2 334Z" fill="#eeeeee" stroke="#eeeeee"></path><path d="M813.1 210L736.2 233L760.2 253Z" fill="#efefef" stroke="#efefef"></path><path d="M203.8 338L210.8 341L264.6 298Z" fill="#f1f1f1" stroke="#f1f1f1"></path><path d="M203.8 338L209.8 353L210.8 341Z" fill="#f4f4f4" stroke="#f4f4f4"></path><path d="M210.8 341L209.8 353L291.7 359Z" fill="#f1f1f1" stroke="#f1f1f1"></path><path d="M256.7 393L258.8 453L288.6 409Z" fill="#f0f0f0" stroke="#f0f0f0"></path><path d="M216.7 414L258.8 453L256.7 393Z" fill="#ededed" stroke="#ededed"></path><path d="M190.8 247L203.8 338L264.6 298Z" fill="#eaeaea" stroke="#eaeaea"></path><path d="M760.1 447L764.2 440L734.2 462Z" fill="#f1f1f1" stroke="#f1f1f1"></path><path d="M734.2 462L764.2 440L691.3 401Z" fill="#eeeeee" stroke="#eeeeee"></path><path d="M795.1 533L760.1 447L734.2 462Z" fill="#ededed" stroke="#ededed"></path><path d="M813.1 210L760.2 253L781.2 261Z" fill="#f3f3f3" stroke="#f3f3f3"></path><path d="M757.1 159L793.2 115L739.2 94Z" fill="#eeeeee" stroke="#eeeeee"></path><path d="M839.1 206L813.1 210L848.1 252Z" fill="#ededed" stroke="#ededed"></path><path d="M335.6 540L343.6 538L372.5 474Z" fill="#ededed" stroke="#ededed"></path><path d="M174.8 237L190.8 247L211.8 233Z" fill="#ebebeb" stroke="#ebebeb"></path><path d="M211.8 233L190.8 247L264.6 298Z" fill="#f0f0f0" stroke="#f0f0f0"></path><path d="M179.8 252L190.8 247L174.8 237Z" fill="#ededed" stroke="#ededed"></path><path d="M576.4 600L608.4 570L577.4 505Z" fill="#f5f5f5" stroke="#f5f5f5"></path><path d="M461.5 596L545.4 465L424.5 545Z" fill="#f3f3f3" stroke="#f3f3f3"></path><path d="M258.8 453L335.6 540L372.5 474Z" fill="#ededed" stroke="#ededed"></path><path d="M452.5 600L461.5 596L424.5 545Z" fill="#eeeeee" stroke="#eeeeee"></path><path d="M784.1 431L792.1 413L764.2 440Z" fill="#ebebeb" stroke="#ebebeb"></path><path d="M764.2 440L792.1 413L691.3 401Z" fill="#f4f4f4" stroke="#f4f4f4"></path><path d="M848.1 252L813.1 210L781.2 261Z" fill="#efefef" stroke="#efefef"></path><path d="M795.1 533L784.1 431L760.1 447Z" fill="#eaeaea" stroke="#eaeaea"></path><path d="M760.1 447L784.1 431L764.2 440Z" fill="#ededed" stroke="#ededed"></path><path d="M729.2 548L687.2 502L686.2 508Z" fill="#efefef" stroke="#efefef"></path><path d="M209.8 353L216.7 414L256.7 393Z" fill="#eaeaea" stroke="#eaeaea"></path><path d="M258.8 453L268.8 539L335.6 540Z" fill="#f4f4f4" stroke="#f4f4f4"></path><path d="M208.8 431L216.7 414L154.9 375Z" fill="#ebebeb" stroke="#ebebeb"></path><path d="M813.1 210L807.1 148L795.1 150Z" fill="#f1f1f1" stroke="#f1f1f1"></path><path d="M795.1 150L793.2 115L757.1 159Z" fill="#ebebeb" stroke="#ebebeb"></path><path d="M807.1 148L793.2 115L795.1 150Z" fill="#e9e9e9" stroke="#e9e9e9"></path><path d="M711.2 0L692.3 0L684.2 66Z" fill="#e9e9e9" stroke="#e9e9e9"></path><path d="M174.8 237L211.8 233L161.8 223Z" fill="#f3f3f3" stroke="#f3f3f3"></path><path d="M190.8 247L179.8 252L203.8 338Z" fill="#f5f5f5" stroke="#f5f5f5"></path><path d="M154.9 375L216.7 414L209.8 353Z" fill="#eaeaea" stroke="#eaeaea"></path><path d="M397.5 0L319.6 0L334.6 32Z" fill="#ededed" stroke="#ededed"></path><path d="M334.6 32L209.7 79L340.6 118Z" fill="#e9e9e9" stroke="#e9e9e9"></path><path d="M565.4 -9L319.6 0L397.5 0Z" fill="#ededed" stroke="#ededed"></path><path d="M711.2 0L684.2 66L740.2 92Z" fill="#f1f1f1" stroke="#f1f1f1"></path><path d="M622.2 0L692.3 0L565.4 -9Z" fill="#ededed" stroke="#ededed"></path><path d="M807.1 148L810.1 146L793.2 115Z" fill="#f5f5f5" stroke="#f5f5f5"></path><path d="M839.1 206L810.1 146L807.1 148Z" fill="#eaeaea" stroke="#eaeaea"></path><path d="M452.5 600L424.5 545L428.5 600Z" fill="#f3f3f3" stroke="#f3f3f3"></path><path d="M161.8 223L211.8 233L230.7 194Z" fill="#eeeeee" stroke="#eeeeee"></path><path d="M154.9 375L209.8 353L203.8 338Z" fill="#f4f4f4" stroke="#f4f4f4"></path><path d="M461.5 596L539.4 600L545.4 465Z" fill="#ebebeb" stroke="#ebebeb"></path><path d="M428.5 600L424.5 545L374.5 587Z" fill="#f4f4f4" stroke="#f4f4f4"></path><path d="M461.5 596L452.5 600L539.4 600Z" fill="#f3f3f3" stroke="#f3f3f3"></path><path d="M782.2 12L711.2 0L740.2 92Z" fill="#f4f4f4" stroke="#f4f4f4"></path><path d="M692.3 0L711.2 0L565.4 -9Z" fill="#f4f4f4" stroke="#f4f4f4"></path><path d="M162.8 324L203.8 338L179.8 252Z" fill="#f4f4f4" stroke="#f4f4f4"></path><path d="M216.7 414L208.8 431L258.8 453Z" fill="#ebebeb" stroke="#ebebeb"></path><path d="M539.4 600L576.4 600L577.4 505Z" fill="#ededed" stroke="#ededed"></path><path d="M674.2 595L729.2 548L686.2 508Z" fill="#f1f1f1" stroke="#f1f1f1"></path><path d="M848.1 252L781.2 261L799.2 331Z" fill="#ebebeb" stroke="#ebebeb"></path><path d="M813.1 210L839.1 206L807.1 148Z" fill="#e9e9e9" stroke="#e9e9e9"></path><path d="M374.5 587L424.5 545L343.6 538Z" fill="#f1f1f1" stroke="#f1f1f1"></path><path d="M884.1 329L841.1 333L896.1 390Z" fill="#f4f4f4" stroke="#f4f4f4"></path><path d="M792.1 413L841.1 333L799.2 331Z" fill="#f1f1f1" stroke="#f1f1f1"></path><path d="M841.1 333L848.1 252L799.2 331Z" fill="#eaeaea" stroke="#eaeaea"></path><path d="M380.6 600L374.5 587L303.6 600Z" fill="#eeeeee" stroke="#eeeeee"></path><path d="M335.6 540L374.5 587L343.6 538Z" fill="#f0f0f0" stroke="#f0f0f0"></path><path d="M146.8 168L161.8 223L230.7 194Z" fill="#efefef" stroke="#efefef"></path><path d="M174.8 237L161.8 223L179.8 252Z" fill="#f4f4f4" stroke="#f4f4f4"></path><path d="M85.9 236L162.8 324L179.8 252Z" fill="#f1f1f1" stroke="#f1f1f1"></path><path d="M452.5 600L561.4 615L539.4 600Z" fill="#e9e9e9" stroke="#e9e9e9"></path><path d="M539.4 600L561.4 615L576.4 600Z" fill="#ebebeb" stroke="#ebebeb"></path><path d="M674.2 595L686.2 508L608.4 570Z" fill="#f1f1f1" stroke="#f1f1f1"></path><path d="M428.5 600L561.4 615L452.5 600Z" fill="#f3f3f3" stroke="#f3f3f3"></path><path d="M267.6 2L209.7 79L334.6 32Z" fill="#eeeeee" stroke="#eeeeee"></path><path d="M303.6 600L374.5 587L335.6 540Z" fill="#e9e9e9" stroke="#e9e9e9"></path><path d="M374.5 587L380.6 600L428.5 600Z" fill="#ededed" stroke="#ededed"></path><path d="M428.5 600L380.6 600L561.4 615Z" fill="#f5f5f5" stroke="#f5f5f5"></path><path d="M895.1 61L795.1 61L793.2 115Z" fill="#f4f4f4" stroke="#f4f4f4"></path><path d="M793.2 115L795.1 61L740.2 92Z" fill="#efefef" stroke="#efefef"></path><path d="M900 139L793.2 115L810.1 146Z" fill="#e9e9e9" stroke="#e9e9e9"></path><path d="M674.2 595L608.4 570L576.4 600Z" fill="#f4f4f4" stroke="#f4f4f4"></path><path d="M868.1 417L841.1 333L792.1 413Z" fill="#e9e9e9" stroke="#e9e9e9"></path><path d="M319.6 0L267.6 2L334.6 32Z" fill="#f0f0f0" stroke="#f0f0f0"></path><path d="M221.8 503L191.8 505L214.7 523Z" fill="#ededed" stroke="#ededed"></path><path d="M208.8 431L222.8 489L258.8 453Z" fill="#f1f1f1" stroke="#f1f1f1"></path><path d="M222.8 489L268.8 539L258.8 453Z" fill="#efefef" stroke="#efefef"></path><path d="M214.7 523L267.7 541L268.8 539Z" fill="#efefef" stroke="#efefef"></path><path d="M268.8 539L267.6 545L335.6 540Z" fill="#f0f0f0" stroke="#f0f0f0"></path><path d="M133.9 -4L261.8 0L61.9 -9Z" fill="#f1f1f1" stroke="#f1f1f1"></path><path d="M319.6 0L261.8 0L267.6 2Z" fill="#f1f1f1" stroke="#f1f1f1"></path><path d="M267.6 2L203.7 54L209.7 79Z" fill="#f3f3f3" stroke="#f3f3f3"></path><path d="M203.7 54L187.8 91L209.7 79Z" fill="#ededed" stroke="#ededed"></path><path d="M209.7 79L187.8 91L230.7 194Z" fill="#f5f5f5" stroke="#f5f5f5"></path><path d="M214.7 523L267.6 545L267.7 541Z" fill="#e9e9e9" stroke="#e9e9e9"></path><path d="M267.7 541L267.6 545L268.8 539Z" fill="#f3f3f3" stroke="#f3f3f3"></path><path d="M131.9 370L154.9 375L162.8 324Z" fill="#efefef" stroke="#efefef"></path><path d="M162.8 324L154.9 375L203.8 338Z" fill="#f0f0f0" stroke="#f0f0f0"></path><path d="M680.2 600L674.2 595L576.4 600Z" fill="#ededed" stroke="#ededed"></path><path d="M221.8 503L222.8 489L191.8 505Z" fill="#ebebeb" stroke="#ebebeb"></path><path d="M222.8 489L221.8 503L268.8 539Z" fill="#ededed" stroke="#ededed"></path><path d="M261.8 0L203.7 54L267.6 2Z" fill="#f0f0f0" stroke="#f0f0f0"></path><path d="M167.9 104L146.8 168L230.7 194Z" fill="#f1f1f1" stroke="#f1f1f1"></path><path d="M67.9 260L131.9 370L162.8 324Z" fill="#f3f3f3" stroke="#f3f3f3"></path><path d="M167.9 104L230.7 194L187.8 91Z" fill="#f3f3f3" stroke="#f3f3f3"></path><path d="M561.4 615L680.2 600L576.4 600Z" fill="#f5f5f5" stroke="#f5f5f5"></path><path d="M674.2 595L692.3 600L729.2 548Z" fill="#eaeaea" stroke="#eaeaea"></path><path d="M154.8 51L167.9 104L187.8 91Z" fill="#e9e9e9" stroke="#e9e9e9"></path><path d="M840.1 10L782.2 12L795.1 61Z" fill="#e9e9e9" stroke="#e9e9e9"></path><path d="M795.1 61L782.2 12L740.2 92Z" fill="#eaeaea" stroke="#eaeaea"></path><path d="M692.3 601L692.3 600L680.2 600Z" fill="#f1f1f1" stroke="#f1f1f1"></path><path d="M680.2 600L692.3 600L674.2 595Z" fill="#eeeeee" stroke="#eeeeee"></path><path d="M561.4 615L692.3 601L680.2 600Z" fill="#ebebeb" stroke="#ebebeb"></path><path d="M721.2 600L765.1 557L729.2 548Z" fill="#e9e9e9" stroke="#e9e9e9"></path><path d="M868.1 417L792.1 413L784.1 431Z" fill="#efefef" stroke="#efefef"></path><path d="M841.1 333L900 301L848.1 252Z" fill="#f3f3f3" stroke="#f3f3f3"></path><path d="M848.1 252L900 235L839.1 206Z" fill="#ebebeb" stroke="#ebebeb"></path><path d="M839.1 206L900 178L810.1 146Z" fill="#eeeeee" stroke="#eeeeee"></path><path d="M795.1 533L734.2 462L729.2 548Z" fill="#eeeeee" stroke="#eeeeee"></path><path d="M191.8 505L222.8 489L208.8 431Z" fill="#f0f0f0" stroke="#f0f0f0"></path><path d="M221.8 503L214.7 523L268.8 539Z" fill="#f4f4f4" stroke="#f4f4f4"></path><path d="M267.6 545L303.6 600L335.6 540Z" fill="#f0f0f0" stroke="#f0f0f0"></path><path d="M85.9 236L179.8 252L161.8 223Z" fill="#f4f4f4" stroke="#f4f4f4"></path><path d="M144.8 481L191.8 505L208.8 431Z" fill="#efefef" stroke="#efefef"></path><path d="M721.2 600L729.2 548L692.3 600Z" fill="#eeeeee" stroke="#eeeeee"></path><path d="M264.7 600L303.6 600L267.6 545Z" fill="#eaeaea" stroke="#eaeaea"></path><path d="M380.6 600L303.6 600L561.4 615Z" fill="#f3f3f3" stroke="#f3f3f3"></path><path d="M154.8 51L148.8 111L167.9 104Z" fill="#f3f3f3" stroke="#f3f3f3"></path><path d="M167.9 104L148.8 111L146.8 168Z" fill="#f1f1f1" stroke="#f1f1f1"></path><path d="M146.8 168L112.9 171L161.8 223Z" fill="#e9e9e9" stroke="#e9e9e9"></path><path d="M858.1 504L868.1 417L784.1 431Z" fill="#eeeeee" stroke="#eeeeee"></path><path d="M765.1 557L795.1 533L729.2 548Z" fill="#f3f3f3" stroke="#f3f3f3"></path><path d="M144.8 481L208.8 431L130.9 472Z" fill="#f0f0f0" stroke="#f0f0f0"></path><path d="M202.8 600L264.7 600L267.6 545Z" fill="#eeeeee" stroke="#eeeeee"></path><path d="M261.8 0L217.8 0L203.7 54Z" fill="#f5f5f5" stroke="#f5f5f5"></path><path d="M203.7 54L154.8 51L187.8 91Z" fill="#ebebeb" stroke="#ebebeb"></path><path d="M133.9 -4L217.8 0L261.8 0Z" fill="#eeeeee" stroke="#eeeeee"></path><path d="M692.3 601L721.2 600L692.3 600Z" fill="#efefef" stroke="#efefef"></path><path d="M853.1 545L858.1 504L795.1 533Z" fill="#efefef" stroke="#efefef"></path><path d="M561.4 615L721.2 600L692.3 601Z" fill="#ebebeb" stroke="#ebebeb"></path><path d="M900 338L900 301L884.1 329Z" fill="#f0f0f0" stroke="#f0f0f0"></path><path d="M884.1 329L900 301L841.1 333Z" fill="#f4f4f4" stroke="#f4f4f4"></path><path d="M900 301L900 235L848.1 252Z" fill="#eeeeee" stroke="#eeeeee"></path><path d="M133.9 -4L214.7 0L217.8 0Z" fill="#f5f5f5" stroke="#f5f5f5"></path><path d="M217.8 0L214.7 0L203.7 54Z" fill="#eaeaea" stroke="#eaeaea"></path><path d="M896.1 390L900 338L884.1 329Z" fill="#efefef" stroke="#efefef"></path><path d="M900 235L900 178L839.1 206Z" fill="#ebebeb" stroke="#ebebeb"></path><path d="M121.9 134L146.8 168L148.8 111Z" fill="#f3f3f3" stroke="#f3f3f3"></path><path d="M121.9 134L112.9 171L146.8 168Z" fill="#eaeaea" stroke="#eaeaea"></path><path d="M97.8 88L121.9 134L148.8 111Z" fill="#ebebeb" stroke="#ebebeb"></path><path d="M868.1 417L896.1 390L841.1 333Z" fill="#eaeaea" stroke="#eaeaea"></path><path d="M900 450L896.1 390L868.1 417Z" fill="#f3f3f3" stroke="#f3f3f3"></path><path d="M202.8 600L267.6 545L214.7 523Z" fill="#ebebeb" stroke="#ebebeb"></path><path d="M303.6 600L114.9 614L561.4 615Z" fill="#f4f4f4" stroke="#f4f4f4"></path><path d="M160.9 0L154.8 51L203.7 54Z" fill="#f3f3f3" stroke="#f3f3f3"></path><path d="M900 178L900 139L810.1 146Z" fill="#f1f1f1" stroke="#f1f1f1"></path><path d="M130.9 472L208.8 431L154.9 375Z" fill="#ebebeb" stroke="#ebebeb"></path><path d="M191.8 600L202.8 600L214.7 523Z" fill="#efefef" stroke="#efefef"></path><path d="M900 235L907.1 142L900 178Z" fill="#eeeeee" stroke="#eeeeee"></path><path d="M900 178L907.1 142L900 139Z" fill="#efefef" stroke="#efefef"></path><path d="M895.1 61L840.1 10L795.1 61Z" fill="#ebebeb" stroke="#ebebeb"></path><path d="M900 301L907.1 142L900 235Z" fill="#e9e9e9" stroke="#e9e9e9"></path><path d="M900 338L907.1 142L900 301Z" fill="#efefef" stroke="#efefef"></path><path d="M74.9 220L85.9 236L112.9 171Z" fill="#f5f5f5" stroke="#f5f5f5"></path><path d="M112.9 171L85.9 236L161.8 223Z" fill="#e9e9e9" stroke="#e9e9e9"></path><path d="M131.9 370L130.9 472L154.9 375Z" fill="#f5f5f5" stroke="#f5f5f5"></path><path d="M855.1 0L840.1 10L900 42Z" fill="#f1f1f1" stroke="#f1f1f1"></path><path d="M782.2 12L855.1 0L711.2 0Z" fill="#ebebeb" stroke="#ebebeb"></path><path d="M771.1 600L795.1 533L765.1 557Z" fill="#e9e9e9" stroke="#e9e9e9"></path><path d="M795.1 533L858.1 504L784.1 431Z" fill="#eeeeee" stroke="#eeeeee"></path><path d="M561.4 615L771.1 600L721.2 600Z" fill="#f3f3f3" stroke="#f3f3f3"></path><path d="M721.2 600L771.1 600L765.1 557Z" fill="#ededed" stroke="#ededed"></path><path d="M55.9 421L130.9 472L131.9 370Z" fill="#eaeaea" stroke="#eaeaea"></path><path d="M191.8 600L214.7 523L191.8 505Z" fill="#f4f4f4" stroke="#f4f4f4"></path><path d="M52.9 226L74.9 220L0 193Z" fill="#eeeeee" stroke="#eeeeee"></path><path d="M85.9 236L67.9 260L162.8 324Z" fill="#efefef" stroke="#efefef"></path><path d="M83.9 102L112.9 171L121.9 134Z" fill="#f0f0f0" stroke="#f0f0f0"></path><path d="M858.1 504L900 450L868.1 417Z" fill="#f0f0f0" stroke="#f0f0f0"></path><path d="M896.1 390L900 450L900 338Z" fill="#f1f1f1" stroke="#f1f1f1"></path><path d="M900 338L900 450L907.1 142Z" fill="#ebebeb" stroke="#ebebeb"></path><path d="M214.7 0L160.9 0L203.7 54Z" fill="#ebebeb" stroke="#ebebeb"></path><path d="M154.8 51L97.8 88L148.8 111Z" fill="#e9e9e9" stroke="#e9e9e9"></path><path d="M133.9 -4L160.9 0L214.7 0Z" fill="#efefef" stroke="#efefef"></path><path d="M52.9 226L67.9 260L85.9 236Z" fill="#e9e9e9" stroke="#e9e9e9"></path><path d="M895.1 61L793.2 115L900 139Z" fill="#f5f5f5" stroke="#f5f5f5"></path><path d="M840.1 10L855.1 0L782.2 12Z" fill="#f3f3f3" stroke="#f3f3f3"></path><path d="M711.2 0L855.1 0L565.4 -9Z" fill="#ededed" stroke="#ededed"></path><path d="M907.1 142L895.1 61L900 139Z" fill="#f5f5f5" stroke="#f5f5f5"></path><path d="M771.1 600L853.1 545L795.1 533Z" fill="#eaeaea" stroke="#eaeaea"></path><path d="M858.1 504L900 481L900 450Z" fill="#eaeaea" stroke="#eaeaea"></path><path d="M94.8 66L97.8 88L154.8 51Z" fill="#efefef" stroke="#efefef"></path><path d="M74.9 220L52.9 226L85.9 236Z" fill="#f5f5f5" stroke="#f5f5f5"></path><path d="M900 543L900 481L858.1 504Z" fill="#ebebeb" stroke="#ebebeb"></path><path d="M900 450L900 481L907.1 142Z" fill="#f4f4f4" stroke="#f4f4f4"></path><path d="M191.8 600L191.8 505L137.9 600Z" fill="#e9e9e9" stroke="#e9e9e9"></path><path d="M264.7 600L114.9 614L303.6 600Z" fill="#ededed" stroke="#ededed"></path><path d="M94.8 66L83.9 102L97.8 88Z" fill="#ebebeb" stroke="#ebebeb"></path><path d="M97.8 88L83.9 102L121.9 134Z" fill="#e9e9e9" stroke="#e9e9e9"></path><path d="M907.1 142L900 42L895.1 61Z" fill="#f0f0f0" stroke="#f0f0f0"></path><path d="M895.1 61L900 42L840.1 10Z" fill="#eeeeee" stroke="#eeeeee"></path><path d="M0 193L74.9 220L112.9 171Z" fill="#eaeaea" stroke="#eaeaea"></path><path d="M32.9 368L55.9 421L131.9 370Z" fill="#f0f0f0" stroke="#f0f0f0"></path><path d="M137.9 600L191.8 505L144.8 481Z" fill="#e9e9e9" stroke="#e9e9e9"></path><path d="M202.8 600L114.9 614L264.7 600Z" fill="#f4f4f4" stroke="#f4f4f4"></path><path d="M133.9 -4L94.8 66L154.8 51Z" fill="#ebebeb" stroke="#ebebeb"></path><path d="M61.9 -9L261.8 0L319.6 0Z" fill="#f3f3f3" stroke="#f3f3f3"></path><path d="M160.9 0L133.9 -4L154.8 51Z" fill="#ededed" stroke="#ededed"></path><path d="M907.1 0L900 13L900 42Z" fill="#f5f5f5" stroke="#f5f5f5"></path><path d="M900 42L900 13L855.1 0Z" fill="#eeeeee" stroke="#eeeeee"></path><path d="M32.9 368L131.9 370L67.9 260Z" fill="#eeeeee" stroke="#eeeeee"></path><path d="M46.9 502L137.9 600L144.8 481Z" fill="#f1f1f1" stroke="#f1f1f1"></path><path d="M907.1 0L900 0L900 13Z" fill="#ededed" stroke="#ededed"></path><path d="M900 13L900 0L855.1 0Z" fill="#ededed" stroke="#ededed"></path><path d="M855.1 0L900 0L565.4 -9Z" fill="#ebebeb" stroke="#ebebeb"></path><path d="M861.1 600L900 543L853.1 545Z" fill="#efefef" stroke="#efefef"></path><path d="M853.1 545L900 543L858.1 504Z" fill="#eaeaea" stroke="#eaeaea"></path><path d="M900 481L900 543L907.1 142Z" fill="#e9e9e9" stroke="#e9e9e9"></path><path d="M907.1 142L907.1 0L900 42Z" fill="#ededed" stroke="#ededed"></path><path d="M900 0L907.1 0L565.4 -9Z" fill="#f3f3f3" stroke="#f3f3f3"></path><path d="M0 282L32.9 368L67.9 260Z" fill="#f5f5f5" stroke="#f5f5f5"></path><path d="M771.1 600L861.1 600L853.1 545Z" fill="#f5f5f5" stroke="#f5f5f5"></path><path d="M900 610L861.1 600L771.1 600Z" fill="#f5f5f5" stroke="#f5f5f5"></path><path d="M46.9 502L144.8 481L130.9 472Z" fill="#f0f0f0" stroke="#f0f0f0"></path><path d="M191.8 600L114.9 614L202.8 600Z" fill="#f1f1f1" stroke="#f1f1f1"></path><path d="M0 193L0 266L52.9 226Z" fill="#f5f5f5" stroke="#f5f5f5"></path><path d="M52.9 226L0 266L67.9 260Z" fill="#f4f4f4" stroke="#f4f4f4"></path><path d="M0 193L112.9 171L83.9 102Z" fill="#ebebeb" stroke="#ebebeb"></path><path d="M0 266L0 282L67.9 260Z" fill="#eaeaea" stroke="#eaeaea"></path><path d="M0 106L0 193L83.9 102Z" fill="#e9e9e9" stroke="#e9e9e9"></path><path d="M0 106L83.9 102L0 81Z" fill="#efefef" stroke="#efefef"></path><path d="M0 282L0 352L32.9 368Z" fill="#efefef" stroke="#efefef"></path><path d="M32.9 368L8.9 426L55.9 421Z" fill="#f5f5f5" stroke="#f5f5f5"></path><path d="M55.9 421L46.9 502L130.9 472Z" fill="#eaeaea" stroke="#eaeaea"></path><path d="M0 352L0 359L32.9 368Z" fill="#eeeeee" stroke="#eeeeee"></path><path d="M29.9 487L46.9 502L55.9 421Z" fill="#f4f4f4" stroke="#f4f4f4"></path><path d="M900 610L900 600L861.1 600Z" fill="#e9e9e9" stroke="#e9e9e9"></path><path d="M861.1 600L900 600L900 543Z" fill="#e9e9e9" stroke="#e9e9e9"></path><path d="M900 543L900 600L907.1 142Z" fill="#ededed" stroke="#ededed"></path><path d="M133.9 -4L63.9 0L94.8 66Z" fill="#f5f5f5" stroke="#f5f5f5"></path><path d="M0 352L-5.1 359L0 359Z" fill="#f3f3f3" stroke="#f3f3f3"></path><path d="M0 359L8.9 426L32.9 368Z" fill="#efefef" stroke="#efefef"></path><path d="M0 282L-5.1 359L0 352Z" fill="#efefef" stroke="#efefef"></path><path d="M0 266L-5.1 359L0 282Z" fill="#efefef" stroke="#efefef"></path><path d="M0 193L-5.1 359L0 266Z" fill="#f0f0f0" stroke="#f0f0f0"></path><path d="M-5.1 359L8.9 426L0 359Z" fill="#f4f4f4" stroke="#f4f4f4"></path><path d="M561.4 615L900 610L771.1 600Z" fill="#f4f4f4" stroke="#f4f4f4"></path><path d="M900 600L900 610L907.1 142Z" fill="#eeeeee" stroke="#eeeeee"></path><path d="M69.9 600L114.9 614L137.9 600Z" fill="#f5f5f5" stroke="#f5f5f5"></path><path d="M137.9 600L114.9 614L191.8 600Z" fill="#f3f3f3" stroke="#f3f3f3"></path><path d="M8.9 426L29.9 487L55.9 421Z" fill="#f0f0f0" stroke="#f0f0f0"></path><path d="M46.9 502L69.9 600L137.9 600Z" fill="#e9e9e9" stroke="#e9e9e9"></path><path d="M565.4 -9L61.9 -9L319.6 0Z" fill="#f4f4f4" stroke="#f4f4f4"></path><path d="M133.9 -4L61.9 -9L63.9 0Z" fill="#ebebeb" stroke="#ebebeb"></path><path d="M19.9 49L83.9 102L94.8 66Z" fill="#f3f3f3" stroke="#f3f3f3"></path><path d="M19.9 49L94.8 66L63.9 0Z" fill="#f1f1f1" stroke="#f1f1f1"></path><path d="M0 193L0 106L-5.1 359Z" fill="#f4f4f4" stroke="#f4f4f4"></path><path d="M0 13L19.9 49L63.9 0Z" fill="#eeeeee" stroke="#eeeeee"></path><path d="M19.9 49L0 81L83.9 102Z" fill="#f0f0f0" stroke="#f0f0f0"></path><path d="M0 106L0 81L-5.1 359Z" fill="#f0f0f0" stroke="#f0f0f0"></path><path d="M8.9 426L0 461L29.9 487Z" fill="#f0f0f0" stroke="#f0f0f0"></path><path d="M0 591L69.9 600L46.9 502Z" fill="#f5f5f5" stroke="#f5f5f5"></path><path d="M-5.1 359L0 461L8.9 426Z" fill="#f1f1f1" stroke="#f1f1f1"></path><path d="M0 489L46.9 502L29.9 487Z" fill="#eeeeee" stroke="#eeeeee"></path><path d="M-11.1 608L0 489L0 461Z" fill="#eeeeee" stroke="#eeeeee"></path><path d="M0 461L0 489L29.9 487Z" fill="#ebebeb" stroke="#ebebeb"></path><path d="M0 0L0 13L63.9 0Z" fill="#ededed" stroke="#ededed"></path><path d="M19.9 49L0 13L0 81Z" fill="#f0f0f0" stroke="#f0f0f0"></path><path d="M0 81L0 13L-5.1 359Z" fill="#eeeeee" stroke="#eeeeee"></path><path d="M61.9 -9L0 0L63.9 0Z" fill="#f5f5f5" stroke="#f5f5f5"></path><path d="M0 13L0 0L-5.1 359Z" fill="#e9e9e9" stroke="#e9e9e9"></path><path d="M-11.1 608L0 591L0 489Z" fill="#eaeaea" stroke="#eaeaea"></path><path d="M0 489L0 591L46.9 502Z" fill="#eeeeee" stroke="#eeeeee"></path><path d="M69.9 600L-11.1 608L114.9 614Z" fill="#eaeaea" stroke="#eaeaea"></path><path d="M-11.1 608L0 600L0 591Z" fill="#efefef" stroke="#efefef"></path><path d="M0 591L0 600L69.9 600Z" fill="#f0f0f0" stroke="#f0f0f0"></path><path d="M-5.1 359L-11.1 608L0 461Z" fill="#f1f1f1" stroke="#f1f1f1"></path><path d="M0 600L-11.1 608L69.9 600Z" fill="#f4f4f4" stroke="#f4f4f4"></path><path d="M0 0L-11.1 608L-5.1 359Z" fill="#f0f0f0" stroke="#f0f0f0"></path></g></svg>